<svg xmlns="http://www.w3.org/2000/svg" width="350" height="218" viewBox="0 0 350 218">
    <g fill="none" fill-rule="evenodd" transform="translate(-545 -2174)">
        <path fill="#FFF" d="M0 0H1440V5571H0z"/>
        <path fill="#FFF" d="M0 1775H1440V2695H0z" transform="matrix(1 0 0 -1 0 4470)"/>
        <g transform="translate(165 1855)">
            <circle cx="555" cy="443" r="64" fill="#F6F8F9"/>
        </g>
        <circle cx="577" cy="2223" r="28" fill="#F6F8F9"/>
        <g transform="scale(-1 1) rotate(25 -5227.758 -242.018)">
            <g>
                <g fill="#F6F8F9" stroke="#737373" stroke-width="2">
                    <path d="M21.92 2.263L12.988 4c-.814.158-1.486.63-1.915 1.267-.43.637-.616 1.437-.458 2.25l7.61 39.152c.159.813.631 1.485 1.268 1.914.636.43 1.437.616 2.25.458l8.934-1.737c.813-.158 1.485-.63 1.915-1.267.429-.636.616-1.437.457-2.25l-7.61-39.151c-.158-.813-.63-1.486-1.267-1.915-.637-.43-1.437-.616-2.25-.458z" transform="rotate(-30 36.407 9.59)"/>
                    <path d="M16.711 3.26L8.158 6.373c-.778.283-1.368.855-1.692 1.551-.325.696-.384 1.516-.1 2.294l13.64 37.479c.284.778.856 1.368 1.552 1.693.696.324 1.515.383 2.294.1l8.552-3.113c.779-.283 1.369-.855 1.693-1.551.325-.696.384-1.516.1-2.294L20.557 5.053c-.284-.778-.856-1.368-1.552-1.693-.696-.324-1.515-.383-2.294-.1z" transform="rotate(-30 36.407 9.59)"/>
                    <path d="M12.787 4.747l-8.25 3.847c-.75.35-1.288.971-1.55 1.692-.263.722-.25 1.544.1 2.294l16.856 36.148c.35.75.97 1.288 1.692 1.55.722.263 1.544.25 2.294-.1l8.249-3.846c.75-.35 1.289-.971 1.551-1.693.263-.721.25-1.543-.1-2.294L16.773 6.198c-.35-.75-.971-1.288-1.693-1.551-.721-.263-1.543-.25-2.293.1z" transform="rotate(-30 36.407 9.59)"/>
                </g>
                <path fill="#737373" d="M5.354 14.848L19.89 14.848 19.89 16.558 5.354 16.558z" transform="rotate(-30 36.407 9.59) rotate(-25 12.622 15.703)"/>
                <path fill="#737373" d="M9.645 24.665L24.182 24.665 24.182 26.375 9.645 26.375z" transform="rotate(-30 36.407 9.59) rotate(-25 16.913 25.52)"/>
                <path fill="#979797" d="M14.368 32.627L28.904 32.627 28.904 34.337 14.368 34.337z" transform="rotate(-30 36.407 9.59) rotate(-25 21.636 33.482)"/>
            </g>
            <rect width="15.101" height="45.884" x="30.928" y="8.841" fill="#F6F8F9" stroke="#737373" stroke-width="2" rx="4"/>
            <path fill="#737373" d="M30.927 12.049H37.768V13.049H30.927zM30.927 16.324H35.202V17.324H30.927zM30.927 20.599H37.768V21.599H30.927zM30.927 24.875H35.202V25.875H30.927zM30.927 29.15H37.768V30.15H30.927zM30.927 33.426H35.202V34.426H30.927zM30.927 37.701H37.768V38.701H30.927zM30.927 41.976H35.202V42.976H30.927zM30.927 46.252H37.768V47.252H30.927zM30.927 50.527H35.202V51.527H30.927z"/>
        </g>
        <g transform="translate(809 2214)">
            <circle cx="8.5" cy="8.5" r="8.5" fill="#F6F8F9"/>
            <circle cx="8.5" cy="8.5" r="1" fill="#737373"/>
        </g>
        <g transform="translate(818 2296)">
            <circle cx="36.55" cy="46" r="35" fill="#F6F8F9"/>
            <g transform="rotate(15 3.51 47.085)">
                <rect width="44" height="41" x="1.062" y="1.07" stroke="#737373" stroke-width="2" rx="4"/>
                <path fill="#737373" d="M0.449 6.624H45.449V8.623999999999999H0.449z"/>
                <rect width="2" height="2" x="2.975" y="3.426" fill="#737373" rx="1"/>
                <rect width="2" height="2" x="7.097" y="3.357" fill="#737373" rx="1"/>
                <rect width="2" height="2" x="10.254" y="3.546" fill="#737373" rx="1"/>
                <path stroke="#737373" stroke-width="2" d="M5.79 8.213H20.79V12.213H5.79zM6.127 15.563H21.127V30.563000000000002H6.127zM6.146 35.087H21.146V42.087H6.146zM24.928 8.455H39.928V23.455H24.928zM24.757 27.136H39.757000000000005V42.135999999999996H24.757z"/>
            </g>
        </g>
        <g fill="#D64123">
            <path fill-rule="nonzero" d="M39.896 0C46.027 0 51 5.008 51 11.188v25.926l-3.494 4.661V11.188c0-4.147-3.273-7.526-7.364-7.657l-.246-.004H11.104c-4.204 0-7.61 3.431-7.61 7.661v68.624c0 4.23 3.406 7.66 7.61 7.66h28.792c4.204 0 7.61-3.43 7.61-7.66V58.716L51 54.055v25.757c0 6.082-4.816 11.029-10.813 11.184l-.291.004H11.104C4.972 91 0 85.992 0 79.812V11.188C0 5.008 4.972 0 11.104 0z" transform="translate(689 2251)"/>
            <path fill-rule="nonzero" d="M77.266 25.563L63.48 15.189l-32.449 43-.592 15.113 14.37-4.73 32.457-43.01zm-13.094-5.445l8.158 6.139-29.664 39.307-8.514 2.802.35-8.93 29.67-39.318zM28 32v18H8V32h20zm-2.759 2.88H10.76v12.24H25.24V34.88zM28 55v18H8V55h20zm-2.759 2.88H10.76v12.24H25.24V57.88z" transform="translate(689 2251)"/>
            <path d="M8.634 41.954L28.352 41.982 28.348 39.163 8.63 39.135z" transform="translate(689 2251) rotate(40 18.491 40.558)"/>
            <path fill-rule="nonzero" d="M35 82L35 85 17 85 17 82zM22.077 26v-1.434c-2.11 0-3.194-1.03-3.194-2.868V9.496c0-.68.83-1.08 1.806-1.08 2.89 0 4.044 1.56 4.278 4.756H26V7c-.45.06-16.55.06-17 0v6.172h.97c.391-1.718 1.064-4.755 4.292-4.755.957 0 1.75.34 1.75 1.079v12.202c0 1.838-1.082 2.868-3.172 2.868V26h9.237z" transform="translate(689 2251)"/>
            <path d="M30 9H43V12H30zM30 16H43V19H30zM30 23H43V26H30z" transform="translate(689 2251)"/>
        </g>
    </g>
</svg>
