<svg xmlns="http://www.w3.org/2000/svg" width="350" height="218" viewBox="0 0 350 218">
    <g fill="none" fill-rule="evenodd" transform="translate(-925 -2174)">
        <path fill="#FFF" d="M0 0H1440V5571H0z"/>
        <path fill="#FFF" d="M0 1775H1440V2695H0z" transform="matrix(1 0 0 -1 0 4470)"/>
        <g transform="translate(165 1855)">
            <circle cx="934" cy="443" r="64" fill="#F6F8F9"/>
        </g>
        <g fill="#D64123" transform="translate(1050.89 2251)">
            <path fill-rule="nonzero" d="M79.275 0c6.943 0 12.573 5.616 12.573 12.546V25.32c-1.38.054-2.71.39-3.956.966l.001-13.741c0-4.743-3.857-8.59-8.618-8.59H12.66c-4.76 0-8.618 3.847-8.618 8.59v53.222c0 4.743 3.857 8.59 8.618 8.59h66.615c4.76 0 8.618-3.847 8.618-8.59v-5.04c1.246.576 2.574.912 3.955.966v4.074c0 6.93-5.63 12.545-12.573 12.545H12.66C5.717 78.313.087 72.698.087 65.768V12.546C.087 5.616 5.717 0 12.66 0z"/>
            <rect width="44.299" height="3.955" x="23.818" y="86.224" rx="1.978"/>
            <path d="M44.386 77.522H47.550000000000004V88.59700000000001H44.386z"/>
            <path fill-rule="nonzero" d="M91.848 25.313c7.427 0 13.448 8.146 13.448 18.194 0 10.049-6.02 18.194-13.448 18.194-7.427 0-13.448-8.145-13.448-18.194 0-10.048 6.021-18.194 13.448-18.194zm0 3.165c-5.436 0-10.283 6.557-10.283 15.03 0 8.472 4.847 15.03 10.283 15.03 5.437 0 10.284-6.558 10.284-15.03 0-8.473-4.847-15.03-10.284-15.03z"/>
            <path d="M80.774 40.343H102.923V43.507000000000005H80.774z"/>
            <path d="M83.938 34.015L99.759 34.015 99.759 37.179 83.938 37.179z" transform="rotate(90 91.848 35.597)"/>
            <path fill-rule="nonzero" d="M34.102 14.239L34.102 17.403 13.535 17.403 13.535 14.239zM76.027 23.731L76.027 26.896 13.535 26.896 13.535 23.731zM76.027 31.642L76.027 34.806 13.535 34.806 13.535 31.642zM36.226 45.479L38.306 47.864 29.442 55.595 38.26 62.718 36.272 65.179 24.522 55.689z"/>
            <path fill-rule="nonzero" d="M64.704 45.479L66.784 47.864 57.919 55.595 66.738 62.718 64.75 65.179 53 55.689z" transform="matrix(-1 0 0 1 119.784 0)"/>
            <path fill-rule="nonzero" d="M48.408 42.716L51.367 43.837 42.598 66.984 39.639 65.863z"/>
        </g>
        <circle cx="963" cy="2220" r="28" fill="#F6F8F9"/>
        <circle cx="29" cy="29" r="29" fill="#F6F8F9" transform="translate(1217 2300)"/>
        <g stroke="#737373" stroke-width="2" transform="rotate(-13 10151.688 -3086.629)">
            <ellipse cx="22.5" cy="7.5" rx="22.5" ry="7.5"/>
            <path d="M45 14c0 4.142-10.074 7.5-22.5 7.5S0 18.142 0 14"/>
            <path d="M45 21c0 4.142-10.074 7.5-22.5 7.5S0 25.142 0 21"/>
            <path d="M45 7v21c0 4.142-10.074 7.5-22.5 7.5S0 32.142 0 28V7"/>
        </g>
        <g transform="translate(1191 2185)">
            <circle cx="15" cy="15" r="15" fill="#F6F8F9"/>
            <circle cx="15" cy="15" r="2" fill="#737373"/>
        </g>
        <g transform="translate(960 2310)">
            <circle cx="8.5" cy="8.5" r="8.5" fill="#F6F8F9"/>
            <circle cx="8.5" cy="8.5" r="1" fill="#737373"/>
        </g>
        <path fill-rule="nonzero" stroke="#737373" stroke-width="2" d="M1238.916 2338.9c3.07-.378 6.052-.127 8.788.637.11.03.22.062.33.095h0c3.675 1.093 6.884 3.118 9.198 5.811 1.994 2.32 3.322 5.138 3.707 8.273h0l-39.773 5.131c-.418-3.379.188-6.434 1.562-9.169 1.593-3.173 4.216-5.913 7.524-7.858h0c2.54-1.502 5.47-2.529 8.664-2.92zm-7.864 8.284c-.545.067-1.012.351-1.324.759-.307.4-.465.918-.397 1.465.067.547.346 1.012.74 1.325.401.32.922.482 1.467.415.547-.067 1.013-.35 1.324-.757.307-.399.465-.917.397-1.465-.067-.547-.346-1.013-.74-1.326-.401-.32-.923-.483-1.467-.416zm17.494-2.148c-.544.067-1.011.35-1.324.758-.306.4-.465.919-.397 1.466.067.548.346 1.013.74 1.326.402.319.923.48 1.468.414.547-.067 1.012-.35 1.324-.757.306-.399.464-.917.396-1.465-.067-.548-.345-1.013-.739-1.327-.4-.319-.921-.482-1.468-.415zM1229.465 2289.575c-3.036-.383-6.074.924-8.017 3.413-1.688 2.163-2.408 4.98-2.446 7.863-.046 3.424.866 6.926 2.125 9.425 1.246 2.47 2.857 5.005 5.233 5.254 1.08.11 1.89-.092 2.726-.316.726-.195 1.48-.41 2.608-.25 1.069.152 1.698.551 2.307.923.79.483 1.555.93 2.765 1.078 2.46.301 4.398-1.492 6.247-3.515 1.827-1.999 2.807-4.055 2.989-4.485.057-.136.176-.443.316-.886-.4-.167-.658-.32-.723-.36-.166-.1-1.563-.94-2.366-2.621-.424-.888-.676-2.012-.497-3.384.43-3.338 3.33-4.6 3.672-4.752.103-.046.434-.194.922-.327-.115-.34-.258-.685-.43-1.034-1.667-3.348-4.847-4.26-6.042-4.483-1.636-.396-3.338-.026-4.733.308-.648.154-1.207.325-1.604.269-.444-.063-.95-.39-1.528-.72-1.038-.59-2.23-1.24-3.524-1.4zm12.044-6.55c-1.73-.173-3.972.618-5.42 1.94-1.287 1.16-2.513 3.142-2.538 5.197-.003.253.012.505.043.756.24.097.485.175.737.232 1.933.436 4.123-.418 5.562-1.776 1.383-1.307 2.45-3.251 2.517-5.322.01-.289-.001-.576-.029-.861-.295-.082-.588-.138-.872-.166z"/>
    </g>
</svg>
