<svg xmlns="http://www.w3.org/2000/svg" width="350" height="218" viewBox="0 0 350 218">
    <g fill="none" fill-rule="evenodd" transform="translate(-165 -2174)">
        <path fill="#FFF" d="M0 0H1440V5571H0z"/>
        <path fill="#FFF" d="M0 1775H1440V2695H0z" transform="matrix(1 0 0 -1 0 4470)"/>
        <g transform="translate(165 1855)">
            <circle cx="187" cy="443" r="64" fill="#F6F8F9"/>
        </g>
        <circle cx="487.343" cy="2337.83" r="22.5" fill="#F6F8F9" transform="rotate(16 487.343 2337.83)"/>
        <g transform="translate(211 2184)">
            <circle cx="31.5" cy="46.5" r="31.5" fill="#F6F8F9"/>
            <g transform="rotate(-25 35.277 -2.575)">
                <path stroke="#737373" stroke-width="2" d="M17 1C12.583 1 8.584 2.804 5.689 5.72 2.79 8.636 1 12.667 1 17.12c0 5.382 2.18 8.255 4.859 11.877.625.844 1.277 1.727 1.94 2.684 1.004 1.448 1.323 3.012 1.601 4.495.27 1.436.434 2.83 1.785 3.719C12.282 40.615 14.065 41 17 41c2.933 0 4.677-.332 5.724-1 1.231-.785 1.322-2.047 1.543-3.422.24-1.498.527-3.163 1.571-4.854.87-1.409 1.82-2.63 2.743-3.815C30.864 24.977 33 22.294 33 17.12c0-4.453-1.791-8.484-4.689-11.402C25.416 2.804 21.417 1 17 1z"/>
                <path stroke="#737373" stroke-linecap="round" stroke-width="2" d="M24 38.96v3.736c0 1.394-2.283 2.263-7.4 2.263-5.118 0-6.6-.869-6.6-2.263v-3.564"/>
                <path stroke="#737373" stroke-linecap="round" stroke-width="2" d="M24 43v4c0 1.232-2.283 2-7.4 2-5.118 0-6.6-.768-6.6-2v-4"/>
                <path stroke="#737373" stroke-width="2" d="M14.225 49c.29 2.133 1.328 3.2 3.114 3.2 1.786 0 2.824-1.067 3.113-3.2"/>
                <path fill="#D8D8D8" stroke="#737373" d="M16.5 27.5H17.5V41.5H16.5z"/>
                <path stroke="#737373" d="M23.793 12.755L22.347 25.016 9.793 26.755" transform="rotate(45 16.793 19.755)"/>
                <rect width="1" height="5" x="9" y="13" fill="#737373" rx=".5"/>
                <rect width="1" height="5" x="12" y="13" fill="#737373" rx=".5"/>
                <rect width="1" height="5" x="15" y="13" fill="#737373" rx=".5"/>
                <rect width="1" height="5" x="18" y="13" fill="#737373" rx=".5"/>
                <rect width="1" height="5" x="21" y="13" fill="#737373" rx=".5"/>
                <rect width="1" height="5" x="24" y="13" fill="#737373" rx=".5"/>
            </g>
        </g>
        <g transform="translate(470 2218)">
            <circle cx="8.5" cy="8.5" r="8.5" fill="#F6F8F9"/>
            <circle cx="8.5" cy="8.5" r="1" fill="#737373"/>
        </g>
        <g transform="translate(222 2332)">
            <circle cx="12.5" cy="12.5" r="12.5" fill="#F6F8F9"/>
            <circle cx="12.5" cy="12.5" r="1.5" fill="#737373"/>
        </g>
        <g>
            <g transform="rotate(-15 9096.262 -541.726) rotate(45 14.464 36.778)">
                <circle cx="15" cy="15" r="14" stroke="#737373" stroke-width="2"/>
                <path fill="#737373" d="M13 29H17V34H13zM13 35H17V36H13zM13 37H17V38H13zM13 39H17V42H13z"/>
            </g>
            <path fill="#737373" d="M27 14H43V18H27zM45 15L51 15 51 17 46 17zM27 20H44V24H27zM47 21H51V23H47zM46 27L51 27 51 29 45 29zM27 26L43 26 42 30 27 30z" transform="rotate(-15 9096.262 -541.726)"/>
        </g>
        <g>
            <path fill="#D64123" fill-rule="nonzero" d="M73.5 30.5c2.761 0 5 2.239 5 5s-2.239 5-5 5-5-2.239-5-5 2.239-5 5-5zm0 2.857c-1.183 0-2.143.96-2.143 2.143 0 1.183.96 2.143 2.143 2.143 1.183 0 2.143-.96 2.143-2.143 0-1.183-.96-2.143-2.143-2.143zM36.5 53.5c2.761 0 5 2.239 5 5s-2.239 5-5 5-5-2.239-5-5 2.239-5 5-5zm0 2.857c-1.183 0-2.143.96-2.143 2.143 0 1.183.96 2.143 2.143 2.143 1.183 0 2.143-.96 2.143-2.143 0-1.183-.96-2.143-2.143-2.143zM48.854 31.5c-.176 1.286-.294 2.517-.354 3.693l2.898.145c.056-1.094.166-2.245.331-3.454l-2.875-.384zm-.336 7.457c.09 1.35.277 2.614.56 3.79l2.823-.667c-.245-1.014-.408-2.118-.488-3.313l-2.895.19zm1.938 7.519c.647 1.233 1.452 2.32 2.412 3.256l2.037-2.045c-.741-.723-1.365-1.566-1.874-2.535l-2.575 1.324zm5.737 5.595c1.135.564 2.386.999 3.751 1.307l.645-2.8c-1.144-.258-2.174-.616-3.094-1.072l-1.302 2.565zm7.532 1.821c.427.025.862.04 1.307.047l.447.003c.647 0 1.265.02 1.862.062l.203-2.864c-.5-.034-1.01-.056-1.535-.064l-.53-.005c-.544 0-1.071-.015-1.583-.045l-.171 2.866zm6.962.614c1.133.279 2.152.658 3.058 1.138l1.37-2.531c-1.125-.595-2.37-1.06-3.73-1.393l-.698 2.786zm5.622 3.058c.713.744 1.312 1.609 1.797 2.599l2.611-1.252c-.613-1.252-1.38-2.361-2.303-3.323l-2.105 1.976zm2.85 5.666c.228 1.02.376 2.13.444 3.328l2.897-.16c-.076-1.349-.245-2.611-.509-3.789l-2.833.621zm.433 6.7c-.057 1.016-.16 2.08-.31 3.191l2.876.379c.16-1.183.27-2.32.331-3.41l-2.897-.16z" transform="translate(299 2258)"/>
            <path fill-rule="nonzero" stroke="#D64123" stroke-width="4" d="M26.962 2.5c-2.612 0-4.978 1.06-6.69 2.776C18.56 6.99 17.5 9.36 17.5 11.98v53.04c0 2.619 1.06 4.989 2.772 6.704 1.712 1.715 4.078 2.776 6.69 2.776h52.076c2.612 0 4.977-1.06 6.69-2.776C87.44 70.01 88.5 67.64 88.5 65.02V11.98c0-1.369-.348-2.654-2.037-3.779-1.807-1.202-4.788-2.214-9.58-3.08C67.778 3.476 52.497 2.5 26.962 2.5z" transform="translate(299 2258)"/>
            <path fill="#D64123" fill-rule="nonzero" d="M47.595 11L59 23.484 56.405 26 45 13.516z" transform="translate(299 2258)"/>
            <path fill="#D64123" fill-rule="nonzero" d="M56.984 11.5L59.5 14.095 47.016 25.5 44.5 22.905zM38.057 28.5L40.5 31.168 2.943 67.5.5 64.832z" transform="translate(299 2258)"/>
        </g>
    </g>
</svg>
